# xmcd
#
# Track frame offsets: 
#        150
#        12450
#        26812
#        40427
#        53951
#        70818
#        87835
#        101196
#        116609
#        128286
#        143100
#        164483
#
# Disc length: 2437 seconds
#
# Revision: 0
# Processed by: cddbd v1.5.2PL0 Copyright (c) Steve Scherf et al.
# Submitted via: ExactAudioCopy v0.95b4
#
DISCID=a509830c
DTITLE=Dwight Yoakam - If There Was a Way
DYEAR=1990
DGENRE=Country
TTITLE0=The Distance Between You and Me
TTITLE1=The Heart That You Own
TTITLE2=Takes a Lot to Rock You
TTITLE3=Nothing's Changed Here
TTITLE4=Sad, Sad Music
TTITLE5=Since I Started Drinkin' Again
TTITLE6=If There Was a Way
TTITLE7=Turn It On, Turn It Up, Turn Me Loose
TTITLE8=It Only Hurts When I Cry
TTITLE9=Send a Message to My Heart
TTITLE10=I Don't Need It Done
TTITLE11=You're the One
EXTD=
EXTT0=
EXTT1=
EXTT2=
EXTT3=
EXTT4=
EXTT5=
EXTT6=
EXTT7=
EXTT8=
EXTT9=
EXTT10=
EXTT11=
PLAYORDER=
